# xmcd
#
# Track frame offsets:
#	150
#	11185
#	23173
#	36369
#	48458
#	63957
#	77780
#	92422
#	102134
#	114386
#	130772
#	148582
#	157701
#	175620
#	187196
#	198766
#	212722
#	230862
#
# Disc length: 3293 seconds
#
# Revision: 1
# Processed by: cddbd v1.5.2PL0 Copyright (c) Steve Scherf et al.
# Submitted via: audiograbber 1.83.01
#
DISCID=ec0cdb12
DTITLE=Various Artists - Best Of Country Songs CD 01
DYEAR=2011
DGENRE=Country
TTITLE0=Leroy Van Dyke - Walk On By
TTITLE1=Jack Green - There Goes My Everything
TTITLE2=Conway Twitty - The Next In Line
TTITLE3=Jerry Lee Lewis - What Made Milwaukee Famous
TTITLE4=Jeannie Pruett - Satin Sheets
TTITLE5=Roberta Lynn - Coal Miner's Daughter
TTITLE6=Cookie and The Cupcakes - Matilda
TTITLE7=Waylon Jennings - Rhythm And Blues
TTITLE8=Roy Drusky - Take These Chains From My Heart
TTITLE9=Zack Van Arsdale - Branded
TTITLE10=Juice Newton and Eddie Rabbitt - Both To Each Other
TTITLE11=Buck Owens - After The Dance
TTITLE12=Glen Campbell - Colleen
TTITLE13=Johnny Nash - Oh Lonesome Me
TTITLE14=Emmylou Harris and Carl Jackson - I Take The Chance
TTITLE15=Willie Nelson - And So Will You My Love
TTITLE16=Patsy Cline and Waylon Jennings - Just Out Of Reach
TTITLE17=Lynn Anderson - The Devil Went Down To Georgia
EXTD=
EXTT0=
EXTT1=
EXTT2=
EXTT3=
EXTT4=
EXTT5=
EXTT6=
EXTT7=
EXTT8=
EXTT9=
EXTT10=
EXTT11=
EXTT12=
EXTT13=
EXTT14=
EXTT15=
EXTT16=
EXTT17=
PLAYORDER=
